<?xml version="1.0" encoding="UTF-8" standalone="no"?>
<!-- Created with Inkscape (http://www.inkscape.org/) -->

<svg
   width="32"
   height="32"
   viewBox="0 0 32 32"
   version="1.1"
   id="svg8"
   inkscape:version="1.2.1 (9c6d41e410, 2022-07-14)"
   sodipodi:docname="application-x-n64-rom.svg"
   xml:space="preserve"
   xmlns:inkscape="http://www.inkscape.org/namespaces/inkscape"
   xmlns:sodipodi="http://sodipodi.sourceforge.net/DTD/sodipodi-0.dtd"
   xmlns="http://www.w3.org/2000/svg"
   xmlns:svg="http://www.w3.org/2000/svg"
   xmlns:rdf="http://www.w3.org/1999/02/22-rdf-syntax-ns#"
   xmlns:cc="http://creativecommons.org/ns#"
   xmlns:dc="http://purl.org/dc/elements/1.1/"><title
     id="title7895">Antu icon Theme</title><defs
     id="defs2"><style
       id="current-color-scheme"
       type="text/css">
      .ColorScheme-Text {
        color:#122036;
      }
      </style><style
       type="text/css"
       id="current-color-scheme-5">
      .ColorScheme-Text {
        color:#122036;
      }
      </style><style
       type="text/css"
       id="current-color-scheme-2">
      .ColorScheme-Text {
        color:#122036;
      }
      </style><style
       type="text/css"
       id="current-color-scheme-1">
      .ColorScheme-Text {
        color:#122036;
      }
      </style><style
       id="current-color-scheme-10"
       type="text/css">
      .ColorScheme-Text {
        color:#122036;
      }
      </style><style
       type="text/css"
       id="current-color-scheme-0">
      .ColorScheme-Text {
        color:#122036;
      }
      </style><style
       type="text/css"
       id="current-color-scheme-26">
      .ColorScheme-Text {
        color:#122036;
      }
      </style><style
       id="current-color-scheme-27"
       type="text/css">
      .ColorScheme-Text {
        color:#122036;
      }
      </style><style
       id="current-color-scheme-7"
       type="text/css">
      .ColorScheme-Text {
        color:#122036;
      }
      </style><style
       id="current-color-scheme-5-09"
       type="text/css">
      .ColorScheme-Text {
        color:#122036;
      }
      </style><style
       id="current-color-scheme-0-3"
       type="text/css">
      .ColorScheme-Text {
        color:#122036;
      }
      </style><style
       id="current-color-scheme-7-9"
       type="text/css">
      .ColorScheme-Text {
        color:#122036;
      }
      </style><style
       id="current-color-scheme-5-3"
       type="text/css">
      .ColorScheme-Text {
        color:#122036;
      }
      </style><style
       id="current-color-scheme-79"
       type="text/css">
      .ColorScheme-Text {
        color:#122036;
      }
      </style><style
       id="current-color-scheme-7-2"
       type="text/css">
      .ColorScheme-Text {
        color:#122036;
      }
      </style><style
       id="current-color-scheme-5-0"
       type="text/css">
      .ColorScheme-Text {
        color:#122036;
      }
      </style><style
       type="text/css"
       id="current-color-scheme-53">
      .ColorScheme-Text {
        color:#122036;
      }
      </style><style
       type="text/css"
       id="current-color-scheme-2-5">
      .ColorScheme-Text {
        color:#122036;
      }
      </style><style
       type="text/css"
       id="current-color-scheme-0-6">
      .ColorScheme-Text {
        color:#122036;
      }
      </style><style
       type="text/css"
       id="current-color-scheme-09">
      .ColorScheme-Text {
        color:#36404d;
      }
      </style><style
       type="text/css"
       id="current-color-scheme-67">
      .ColorScheme-Text {
        color:#122036;
      }
      </style><style
       type="text/css"
       id="current-color-scheme-7-3">
      .ColorScheme-Text {
        color:#122036;
      }
      </style><style
       type="text/css"
       id="current-color-scheme-5-6">
      .ColorScheme-Text {
        color:#122036;
      }
      </style><style
       type="text/css"
       id="current-color-scheme-6">
      .ColorScheme-Text {
        color:#122036;
      }
      </style><style
       type="text/css"
       id="current-color-scheme-1-0">
      .ColorScheme-Text {
        color:#122036;
      }
      </style><style
       id="current-color-scheme-10-6"
       type="text/css">
      .ColorScheme-Text {
        color:#122036;
      }
      </style><style
       id="current-color-scheme-5-7"
       type="text/css">
      .ColorScheme-Text {
        color:#122036;
      }
      </style><style
       id="current-color-scheme-1-2"
       type="text/css">
      .ColorScheme-Text {
        color:#122036;
      }
      </style><style
       type="text/css"
       id="current-color-scheme-10-9">
      .ColorScheme-Text {
        color:#122036;
      }
      </style><style
       id="current-color-scheme-9"
       type="text/css">
      .ColorScheme-Text {
        color:#122036;
      }
      </style><style
       type="text/css"
       id="current-color-scheme-5-36">
      .ColorScheme-Text {
        color:#122036;
      }
      </style><style
       type="text/css"
       id="current-color-scheme-2-0">
      .ColorScheme-Text {
        color:#122036;
      }
      </style><style
       type="text/css"
       id="current-color-scheme-1-6">
      .ColorScheme-Text {
        color:#122036;
      }
      </style><style
       id="current-color-scheme-10-2"
       type="text/css">
      .ColorScheme-Text {
        color:#122036;
      }
      </style><style
       type="text/css"
       id="current-color-scheme-0-61">
      .ColorScheme-Text {
        color:#122036;
      }
      </style><style
       type="text/css"
       id="current-color-scheme-26-8">
      .ColorScheme-Text {
        color:#122036;
      }
      </style><style
       id="current-color-scheme-27-7"
       type="text/css">
      .ColorScheme-Text {
        color:#122036;
      }
      </style><style
       id="current-color-scheme-7-92"
       type="text/css">
      .ColorScheme-Text {
        color:#122036;
      }
      </style><style
       id="current-color-scheme-5-09-0"
       type="text/css">
      .ColorScheme-Text {
        color:#122036;
      }
      </style><style
       id="current-color-scheme-0-3-2"
       type="text/css">
      .ColorScheme-Text {
        color:#122036;
      }
      </style><style
       id="current-color-scheme-7-9-3"
       type="text/css">
      .ColorScheme-Text {
        color:#122036;
      }
      </style><style
       id="current-color-scheme-5-3-7"
       type="text/css">
      .ColorScheme-Text {
        color:#122036;
      }
      </style><style
       id="current-color-scheme-79-5"
       type="text/css">
      .ColorScheme-Text {
        color:#122036;
      }
      </style><style
       id="current-color-scheme-7-2-9"
       type="text/css">
      .ColorScheme-Text {
        color:#122036;
      }
      </style><style
       id="current-color-scheme-5-0-2"
       type="text/css">
      .ColorScheme-Text {
        color:#122036;
      }
      </style><style
       id="current-color-scheme-78"
       type="text/css">
      .ColorScheme-Text {
        color:#122036;
      }
      </style><style
       id="current-color-scheme-7-4"
       type="text/css">
      .ColorScheme-Text {
        color:#122036;
      }
      </style><style
       id="current-color-scheme-5-5"
       type="text/css">
      .ColorScheme-Text {
        color:#122036;
      }
      </style><style
       id="current-color-scheme-0-0"
       type="text/css">
      .ColorScheme-Text {
        color:#122036;
      }
      </style><style
       id="current-color-scheme-7-9-36"
       type="text/css">
      .ColorScheme-Text {
        color:#122036;
      }
      </style><style
       id="current-color-scheme-5-3-1"
       type="text/css">
      .ColorScheme-Text {
        color:#122036;
      }
      </style><style
       id="current-color-scheme-79-0"
       type="text/css">
      .ColorScheme-Text {
        color:#122036;
      }
      </style><style
       id="current-color-scheme-7-2-6"
       type="text/css">
      .ColorScheme-Text {
        color:#122036;
      }
      </style><style
       id="current-color-scheme-5-0-3"
       type="text/css">
      .ColorScheme-Text {
        color:#122036;
      }
      </style><style
       id="current-color-scheme-535"
       type="text/css">
      .ColorScheme-Text {
        color:#122036;
      }
      </style><style
       type="text/css"
       id="current-color-scheme-5-62">
      .ColorScheme-Text {
        color:#122036;
      }
      </style><style
       type="text/css"
       id="current-color-scheme-2-9">
      .ColorScheme-Text {
        color:#122036;
      }
      </style><style
       type="text/css"
       id="current-color-scheme-1-1">
      .ColorScheme-Text {
        color:#122036;
      }
      </style><style
       id="current-color-scheme-10-27"
       type="text/css">
      .ColorScheme-Text {
        color:#122036;
      }
      </style><style
       type="text/css"
       id="current-color-scheme-0-09">
      .ColorScheme-Text {
        color:#122036;
      }
      </style><style
       type="text/css"
       id="current-color-scheme-26-3">
      .ColorScheme-Text {
        color:#122036;
      }
      </style><style
       id="current-color-scheme-27-6"
       type="text/css">
      .ColorScheme-Text {
        color:#122036;
      }
      </style><style
       id="current-color-scheme-7-0"
       type="text/css">
      .ColorScheme-Text {
        color:#122036;
      }
      </style><style
       id="current-color-scheme-5-09-6"
       type="text/css">
      .ColorScheme-Text {
        color:#122036;
      }
      </style><style
       id="current-color-scheme-0-3-26"
       type="text/css">
      .ColorScheme-Text {
        color:#122036;
      }
      </style><style
       id="current-color-scheme-7-9-1"
       type="text/css">
      .ColorScheme-Text {
        color:#122036;
      }
      </style><style
       id="current-color-scheme-5-3-8"
       type="text/css">
      .ColorScheme-Text {
        color:#122036;
      }
      </style><style
       id="current-color-scheme-79-7"
       type="text/css">
      .ColorScheme-Text {
        color:#122036;
      }
      </style><style
       id="current-color-scheme-7-2-92"
       type="text/css">
      .ColorScheme-Text {
        color:#122036;
      }
      </style><style
       id="current-color-scheme-5-0-0"
       type="text/css">
      .ColorScheme-Text {
        color:#122036;
      }
      </style></defs><sodipodi:namedview
     id="base"
     pagecolor="#ffffff"
     bordercolor="#666666"
     borderopacity="1.0"
     inkscape:pageopacity="0.0"
     inkscape:pageshadow="2"
     inkscape:zoom="22.627417"
     inkscape:cx="22.428543"
     inkscape:cy="14.915534"
     inkscape:document-units="px"
     inkscape:current-layer="g5329"
     showgrid="true"
     units="px"
     inkscape:window-width="2160"
     inkscape:window-height="1335"
     inkscape:window-x="0"
     inkscape:window-y="0"
     inkscape:window-maximized="1"
     objecttolerance="10"
     gridtolerance="10"
     guidetolerance="10"
     inkscape:snap-bbox="true"
     inkscape:bbox-nodes="true"
     inkscape:showpageshadow="false"
     inkscape:bbox-paths="true"
     inkscape:snap-bbox-edge-midpoints="true"
     inkscape:snap-bbox-midpoints="true"
     inkscape:object-paths="true"
     inkscape:snap-intersection-paths="true"
     inkscape:object-nodes="false"
     inkscape:snap-smooth-nodes="false"
     inkscape:snap-midpoints="false"
     inkscape:pagecheckerboard="0"
     inkscape:deskcolor="#d1d1d1"><inkscape:grid
       type="xygrid"
       id="grid7897"
       empspacing="4" /></sodipodi:namedview><metadata
     id="metadata5"><rdf:RDF><cc:Work
         rdf:about=""><dc:format>image/svg+xml</dc:format><dc:type
           rdf:resource="http://purl.org/dc/dcmitype/StillImage" /><dc:title>Antu icon Theme</dc:title></cc:Work></rdf:RDF></metadata><g
     inkscape:label="Capa 1"
     inkscape:groupmode="layer"
     id="layer1"
     transform="translate(0,-282.64999)"><g
       id="g5329"
       transform="translate(84,-4)"><g
         id="g1507"
         transform="translate(-73,1)" /><g
         inkscape:label="Capa 1"
         id="layer1-9"
         transform="matrix(3.7795277,0,0,3.7795277,-119.99845,-792.86868)"
         style="fill:#d1ebff;fill-opacity:1"><g
           id="g3883"
           transform="translate(9.6238659,-4.0302467)"
           style="fill:#d1ebff;fill-opacity:1" /></g><g
         id="g11904"
         transform="translate(-21,-17.99998)"><path
           inkscape:connector-curvature="0"
           style="fill:#a3b7cc;fill-opacity:1;stroke:none;stroke-width:2;stroke-linecap:round;stroke-linejoin:round;stroke-miterlimit:4;stroke-dasharray:none;stroke-opacity:1"
           d="m -58,305.64997 h 21.999999 c 1.108,0 2,0.89202 2,2.00001 v 26.00001 c 0,1.10797 -0.892,1.99998 -2,1.99998 H -58 c -1.108,0 -2,-0.89201 -2,-1.99998 v -26 c 0,-1.108 0.892,-2 2,-2.00002 z"
           id="rect827-8" /><path
           inkscape:connector-curvature="0"
           style="fill:#fafafa;fill-opacity:1;stroke:none;stroke-width:2;stroke-linecap:round;stroke-linejoin:round;stroke-miterlimit:4;stroke-dasharray:none;stroke-opacity:1"
           d="m -58,306.64999 h 21.999999 c 0.554,0 1,0.44599 1,1 v 26 c 0,0.55401 -0.446,1 -1,1 H -58 c -0.554,0 -1,-0.44599 -1,-1 v -26 c 0,-0.55399 0.446,-1 1,-1 z"
           id="rect829-6" /><path
           id="rect859-6-5"
           style="fill:#dfe6ec;fill-opacity:1;stroke:none;stroke-width:2;stroke-linecap:round;stroke-linejoin:round;stroke-miterlimit:4;stroke-dasharray:none;stroke-dashoffset:0;stroke-opacity:1;paint-order:normal"
           d="m -58,306.64999 c -0.553947,0 -1,0.4461 -1,1.00003 v 1.99997 1.00003 h 1 2 1 v -1.00003 -1.99997 -1.00003 h -1 z m 3,4.00003 V 314.65 h 4 v -3.99998 z m 4,0 h 4 v -4.00003 h -4 z m 4,0 V 314.65 h 4 v -3.99998 z m 4,0 h 4 v -4.00003 h -4 z m 4,0 V 314.65 h 4 v -3.99998 z m 0,3.99998 h -4 v 3.99999 h 4 z m 0,3.99999 v 4.00003 h 4 v -4.00003 z m 0,4.00003 h -4 V 326.65 h 4 z m 0,3.99998 v 0.99999 2.00001 0.99999 h 3 1 v -0.99999 -3 z m 0,3.99999 h -4 v 4.00003 h 4 z m -4,0 V 326.65 h -4 v 3.99999 z m -4,0 h -4 v 4.00003 h 4 z m -4,0 V 326.65 h -4 v 3.99999 z m -4,0 h -4 v 4.00003 h 4 z m 0,-3.99999 v -3.99998 h -4 V 326.65 Z m 0,-3.99998 h 4 v -4.00003 h -4 z m 0,-4.00003 V 314.65 h -4 v 3.99999 z m 4,0 h 4 V 314.65 h -4 z m 4,0 v 4.00003 h 4 v -4.00003 z m 0,4.00003 h -4 v 3.56467 0.43531 h 4 z"
           sodipodi:nodetypes="sscccccccccsccccccccccccccccccccccccccccccccccccccccccccccccccccccccccccccccccccccccccccccccccccccccccccccccccccccccc" /><g
           id="g48655"
           transform="translate(21,18)"><g
             id="path11247-1-7-5"><path
               style="color:#000000;fill:#547597;stroke-linecap:round;stroke-linejoin:round;stroke-miterlimit:1.8;paint-order:stroke fill markers"
               d="m -69.447266,293.75586 -2,1 a 1.0001,1.0001 0 0 0 -0.384765,0.33984 l -1.259766,1.89063 -0.460937,-0.23047 a 1.0001,1.0001 0 0 0 -0.894532,0 l -2,1 A 1.0001,1.0001 0 0 0 -77,298.65039 v 9 a 1.0001,1.0001 0 0 0 0.552734,0.89453 l 2,1 a 1.0001,1.0001 0 0 0 0.894532,0 l 1.210937,-0.60547 1.509766,2.26563 a 1.0001,1.0001 0 0 0 0.384765,0.33984 l 2,1 a 1.0001,1.0001 0 0 0 0.894532,0 l 2,-1 A 1.0001,1.0001 0 0 0 -65,310.65039 v -1 h 2 a 1.0001,1.0001 0 0 0 0.447266,-0.10547 l 2,-1 A 1.0001,1.0001 0 0 0 -60,307.65039 v -9 a 1.0001,1.0001 0 0 0 -0.552734,-0.89453 l -2,-1 a 1.0001,1.0001 0 0 0 -0.894532,0 l -2,1 a 1.0001,1.0001 0 0 0 -0.152343,0.0937 L -66,298.15039 v -2.5 a 1.0001,1.0001 0 0 0 -0.552734,-0.89453 l -2,-1 a 1.0001,1.0001 0 0 0 -0.894532,0 z M -69,295.76758 l 1,0.5 v 3.88281 a 1.0001,1.0001 0 0 0 1.599609,0.79883 l 1.927735,-1.44531 1.472656,-0.73633 1,0.5 v 7.76367 l -1.236328,0.61914 h -1.349609 l -0.707032,-0.70703 A 1.0001,1.0001 0 0 0 -67,307.65039 v 2.38086 l -1,0.5 -1.314453,-0.65625 -1.853516,-2.7793 a 1.0001,1.0001 0 0 0 -1.279297,-0.33984 L -74,307.53125 l -1,-0.5 v -7.76367 l 1,-0.5 0.802734,0.40234 a 1.0001,1.0001 0 0 0 1.279297,-0.33984 l 1.603516,-2.4043 z"
               id="path10781" /><path
               style="color:#000000;fill:#425c78;stroke-width:2;stroke-linecap:round;stroke-linejoin:round;stroke-miterlimit:1.8;paint-order:stroke fill markers"
               d="m -69,294.64999 -2,1 -1.75,2.625 -1.25,-0.625 -2,1 v 9 l 2,1 2,-1 2,3 2,1 2,-1 v -3 l 1,1 h 2 l 2,-1 v -9 l -2,-1 -2,1 -2,1.5 v -4.5 z"
               id="path10783" /></g></g><path
           id="path11247-1-7"
           style="fill:#44acff;fill-opacity:1;stroke:none;stroke-width:2;stroke-linecap:round;stroke-linejoin:round;stroke-miterlimit:1.8;stroke-opacity:1;paint-order:stroke fill markers;stop-color:#000000"
           d="m -46,313.64999 -2,1 -3,4 1,2 2,-1 v 4 l 2,-1 z" /><path
           style="fill:#000099;fill-opacity:1;stroke:none;stroke-width:2;stroke-linecap:round;stroke-linejoin:round;stroke-miterlimit:1.8;stroke-opacity:1;paint-order:stroke fill markers;stop-color:#000000"
           d="m -47,320.64999 v 9 l 2,-1 v -9 z"
           id="path11247-1" /><path
           style="fill:#44acff;fill-opacity:1;stroke:none;stroke-width:2;stroke-linecap:round;stroke-linejoin:round;stroke-miterlimit:1.8;stroke-opacity:1;paint-order:stroke fill markers;stop-color:#000000"
           d="m -53,322.64999 v 4 l 2,-1 v -1 z"
           id="path11247-1-74"
           sodipodi:nodetypes="ccccc" /><path
           style="fill:#53d18a;fill-opacity:1;stroke:none;stroke-width:2;stroke-linecap:round;stroke-linejoin:round;stroke-miterlimit:1.8;stroke-opacity:1;paint-order:stroke fill markers;stop-color:#000000"
           d="m -42,317.64999 v 6 0.95475 2.04525 l -2,-2 h -4 v -5 l 4,-3 z"
           id="path11247-5"
           sodipodi:nodetypes="ccccccccc" /><path
           style="fill:#fcd277;fill-opacity:1;stroke:none;stroke-width:2;stroke-linecap:round;stroke-linejoin:round;stroke-miterlimit:1.8;stroke-opacity:1;paint-order:stroke fill markers;stop-color:#000000"
           d="m -48,314.64999 -2,-1 2,-1 2,1 z"
           id="path12632-5-5" /><path
           id="path11247-0"
           style="fill:#53d18a;fill-opacity:1;stroke:none;stroke-width:2;stroke-linecap:round;stroke-linejoin:round;stroke-miterlimit:1.8;stroke-opacity:1;paint-order:stroke fill markers;stop-color:#000000"
           d="m -55,316.64999 v 9 l 2,1 v -4 l 2,3 2,3 2,1 v -9 l -4,-2 v 2 l -2,-3 z" /><path
           style="fill:#53d18a;fill-opacity:1;stroke:none;stroke-width:2;stroke-linecap:round;stroke-linejoin:round;stroke-miterlimit:1.8;stroke-opacity:1;paint-order:stroke fill markers;stop-color:#000000"
           d="m -48,314.64999 -4,6 v -4 l 2,-3 z"
           id="path11247-1-74-5-3-7"
           sodipodi:nodetypes="ccccc" /><path
           style="fill:#fcd277;fill-opacity:1;stroke:none;stroke-width:2;stroke-linecap:round;stroke-linejoin:round;stroke-miterlimit:1.8;stroke-opacity:1;paint-order:stroke fill markers;stop-color:#000000"
           d="m -53,317.64999 -2,-1 2,-1 2,1 z"
           id="path12632-5" /><path
           style="fill:#fcd277;fill-opacity:1;stroke:none;stroke-width:2;stroke-linecap:round;stroke-linejoin:round;stroke-miterlimit:1.8;stroke-opacity:1;paint-order:stroke fill markers;stop-color:#000000"
           d="m -42,317.64999 -2,-1 2,-1 2,1 z"
           id="path12632-5-5-4" /><path
           style="fill:#ff778a;fill-opacity:1;stroke:none;stroke-width:2;stroke-linecap:round;stroke-linejoin:round;stroke-miterlimit:1.8;stroke-opacity:1;paint-order:stroke fill markers;stop-color:#000000"
           d="m -53,317.64999 4,6 v -4 l -2,-3 z"
           id="path11247-1-74-5"
           sodipodi:nodetypes="ccccc" /><path
           style="fill:#fcd277;fill-opacity:1;stroke:none;stroke-width:2;stroke-linecap:round;stroke-linejoin:round;stroke-miterlimit:1.8;stroke-opacity:1;paint-order:stroke fill markers;stop-color:#000000"
           d="m -47,320.64999 -2,-1 2,-1 2,1 z"
           id="path12632" /><path
           style="fill:#ff778a;fill-opacity:1;stroke:none;stroke-width:2;stroke-linecap:round;stroke-linejoin:round;stroke-miterlimit:1.8;stroke-opacity:1;paint-order:stroke fill markers;stop-color:#000000"
           d="m -45,323.64999 3,3 h -2 l -1,-1 z"
           id="path14130"
           sodipodi:nodetypes="ccccc" /><path
           id="path11247-1-7-6"
           style="fill:#44acff;fill-opacity:1;stroke:none;stroke-width:2;stroke-linecap:round;stroke-linejoin:round;stroke-miterlimit:1.8;stroke-opacity:1;paint-order:stroke fill markers;stop-color:#000000"
           d="m -40,316.64999 -2,1 v 5 l -3,-3 -2,1 v 9 l 2,-1 v -5 l 3,3 2,-1 z" /></g></g></g></svg>
