<?xml version="1.0" encoding="UTF-8" standalone="no"?>
<!-- Created with Inkscape (http://www.inkscape.org/) -->

<svg
   width="32"
   height="32"
   viewBox="0 0 32 32"
   version="1.1"
   id="svg8"
   inkscape:version="1.2.1 (9c6d41e410, 2022-07-14)"
   sodipodi:docname="text-x-python.svg"
   xml:space="preserve"
   xmlns:inkscape="http://www.inkscape.org/namespaces/inkscape"
   xmlns:sodipodi="http://sodipodi.sourceforge.net/DTD/sodipodi-0.dtd"
   xmlns="http://www.w3.org/2000/svg"
   xmlns:svg="http://www.w3.org/2000/svg"
   xmlns:rdf="http://www.w3.org/1999/02/22-rdf-syntax-ns#"
   xmlns:cc="http://creativecommons.org/ns#"
   xmlns:dc="http://purl.org/dc/elements/1.1/"><title
     id="title7895">Antu icon Theme</title><defs
     id="defs2"><style
       type="text/css"
       id="current-color-scheme">
      .ColorScheme-Text {
        color:#122036;
      }
      </style><style
       id="current-color-scheme-53"
       type="text/css">
      .ColorScheme-Text {
        color:#122036;
      }
      </style><style
       type="text/css"
       id="current-color-scheme-5">
      .ColorScheme-Text {
        color:#122036;
      }
      </style><style
       type="text/css"
       id="current-color-scheme-2">
      .ColorScheme-Text {
        color:#122036;
      }
      </style><style
       type="text/css"
       id="current-color-scheme-1">
      .ColorScheme-Text {
        color:#122036;
      }
      </style><style
       id="current-color-scheme-10"
       type="text/css">
      .ColorScheme-Text {
        color:#122036;
      }
      </style><style
       type="text/css"
       id="current-color-scheme-0">
      .ColorScheme-Text {
        color:#122036;
      }
      </style><style
       type="text/css"
       id="current-color-scheme-26">
      .ColorScheme-Text {
        color:#122036;
      }
      </style><style
       id="current-color-scheme-20"
       type="text/css">
      .ColorScheme-Text {
        color:#122036;
      }
      </style><style
       type="text/css"
       id="current-color-scheme-5-2">
      .ColorScheme-Text {
        color:#122036;
      }
      </style><style
       type="text/css"
       id="current-color-scheme-2-3">
      .ColorScheme-Text {
        color:#122036;
      }
      </style><style
       type="text/css"
       id="current-color-scheme-1-7">
      .ColorScheme-Text {
        color:#122036;
      }
      </style><style
       id="current-color-scheme-10-5"
       type="text/css">
      .ColorScheme-Text {
        color:#122036;
      }
      </style><style
       type="text/css"
       id="current-color-scheme-0-9">
      .ColorScheme-Text {
        color:#122036;
      }
      </style><style
       type="text/css"
       id="current-color-scheme-26-2">
      .ColorScheme-Text {
        color:#122036;
      }
      </style><style
       id="current-color-scheme-27"
       type="text/css">
      .ColorScheme-Text {
        color:#122036;
      }
      </style><style
       id="current-color-scheme-7"
       type="text/css">
      .ColorScheme-Text {
        color:#122036;
      }
      </style><style
       id="current-color-scheme-5-09"
       type="text/css">
      .ColorScheme-Text {
        color:#122036;
      }
      </style><style
       id="current-color-scheme-0-3"
       type="text/css">
      .ColorScheme-Text {
        color:#122036;
      }
      </style><style
       id="current-color-scheme-7-9"
       type="text/css">
      .ColorScheme-Text {
        color:#122036;
      }
      </style><style
       id="current-color-scheme-5-3"
       type="text/css">
      .ColorScheme-Text {
        color:#122036;
      }
      </style><style
       id="current-color-scheme-79"
       type="text/css">
      .ColorScheme-Text {
        color:#122036;
      }
      </style><style
       id="current-color-scheme-7-2"
       type="text/css">
      .ColorScheme-Text {
        color:#122036;
      }
      </style><style
       id="current-color-scheme-5-0"
       type="text/css">
      .ColorScheme-Text {
        color:#122036;
      }
      </style><style
       type="text/css"
       id="current-color-scheme-53-2">
      .ColorScheme-Text {
        color:#122036;
      }
      </style><style
       type="text/css"
       id="current-color-scheme-2-5">
      .ColorScheme-Text {
        color:#122036;
      }
      </style><style
       type="text/css"
       id="current-color-scheme-0-6">
      .ColorScheme-Text {
        color:#122036;
      }
      </style><style
       type="text/css"
       id="current-color-scheme-09">
      .ColorScheme-Text {
        color:#36404d;
      }
      </style><style
       type="text/css"
       id="current-color-scheme-67">
      .ColorScheme-Text {
        color:#122036;
      }
      </style><style
       type="text/css"
       id="current-color-scheme-7-3">
      .ColorScheme-Text {
        color:#122036;
      }
      </style><style
       type="text/css"
       id="current-color-scheme-5-6">
      .ColorScheme-Text {
        color:#122036;
      }
      </style><style
       type="text/css"
       id="current-color-scheme-6">
      .ColorScheme-Text {
        color:#122036;
      }
      </style><style
       type="text/css"
       id="current-color-scheme-1-0">
      .ColorScheme-Text {
        color:#122036;
      }
      </style><style
       id="current-color-scheme-10-6"
       type="text/css">
      .ColorScheme-Text {
        color:#122036;
      }
      </style><style
       id="current-color-scheme-5-7"
       type="text/css">
      .ColorScheme-Text {
        color:#122036;
      }
      </style><style
       id="current-color-scheme-1-2"
       type="text/css">
      .ColorScheme-Text {
        color:#122036;
      }
      </style><style
       type="text/css"
       id="current-color-scheme-10-9">
      .ColorScheme-Text {
        color:#122036;
      }
      </style><style
       id="current-color-scheme-9"
       type="text/css">
      .ColorScheme-Text {
        color:#122036;
      }
      </style><style
       type="text/css"
       id="current-color-scheme-5-36">
      .ColorScheme-Text {
        color:#122036;
      }
      </style><style
       type="text/css"
       id="current-color-scheme-2-0">
      .ColorScheme-Text {
        color:#122036;
      }
      </style><style
       type="text/css"
       id="current-color-scheme-1-6">
      .ColorScheme-Text {
        color:#122036;
      }
      </style><style
       id="current-color-scheme-10-2"
       type="text/css">
      .ColorScheme-Text {
        color:#122036;
      }
      </style><style
       type="text/css"
       id="current-color-scheme-0-61">
      .ColorScheme-Text {
        color:#122036;
      }
      </style><style
       type="text/css"
       id="current-color-scheme-26-8">
      .ColorScheme-Text {
        color:#122036;
      }
      </style><style
       id="current-color-scheme-27-7"
       type="text/css">
      .ColorScheme-Text {
        color:#122036;
      }
      </style><style
       id="current-color-scheme-7-92"
       type="text/css">
      .ColorScheme-Text {
        color:#122036;
      }
      </style><style
       id="current-color-scheme-5-09-0"
       type="text/css">
      .ColorScheme-Text {
        color:#122036;
      }
      </style><style
       id="current-color-scheme-0-3-2"
       type="text/css">
      .ColorScheme-Text {
        color:#122036;
      }
      </style><style
       id="current-color-scheme-7-9-3"
       type="text/css">
      .ColorScheme-Text {
        color:#122036;
      }
      </style><style
       id="current-color-scheme-5-3-7"
       type="text/css">
      .ColorScheme-Text {
        color:#122036;
      }
      </style><style
       id="current-color-scheme-79-5"
       type="text/css">
      .ColorScheme-Text {
        color:#122036;
      }
      </style><style
       id="current-color-scheme-7-2-9"
       type="text/css">
      .ColorScheme-Text {
        color:#122036;
      }
      </style><style
       id="current-color-scheme-5-0-2"
       type="text/css">
      .ColorScheme-Text {
        color:#122036;
      }
      </style><style
       id="current-color-scheme-78"
       type="text/css">
      .ColorScheme-Text {
        color:#122036;
      }
      </style><style
       id="current-color-scheme-7-4"
       type="text/css">
      .ColorScheme-Text {
        color:#122036;
      }
      </style><style
       id="current-color-scheme-5-5"
       type="text/css">
      .ColorScheme-Text {
        color:#122036;
      }
      </style><style
       id="current-color-scheme-0-0"
       type="text/css">
      .ColorScheme-Text {
        color:#122036;
      }
      </style><style
       id="current-color-scheme-7-9-36"
       type="text/css">
      .ColorScheme-Text {
        color:#122036;
      }
      </style><style
       id="current-color-scheme-5-3-1"
       type="text/css">
      .ColorScheme-Text {
        color:#122036;
      }
      </style><style
       id="current-color-scheme-79-0"
       type="text/css">
      .ColorScheme-Text {
        color:#122036;
      }
      </style><style
       id="current-color-scheme-7-2-6"
       type="text/css">
      .ColorScheme-Text {
        color:#122036;
      }
      </style><style
       id="current-color-scheme-5-0-3"
       type="text/css">
      .ColorScheme-Text {
        color:#122036;
      }
      </style><style
       id="current-color-scheme-535"
       type="text/css">
      .ColorScheme-Text {
        color:#122036;
      }
      </style><style
       type="text/css"
       id="current-color-scheme-5-62">
      .ColorScheme-Text {
        color:#122036;
      }
      </style><style
       type="text/css"
       id="current-color-scheme-2-9">
      .ColorScheme-Text {
        color:#122036;
      }
      </style><style
       type="text/css"
       id="current-color-scheme-1-1">
      .ColorScheme-Text {
        color:#122036;
      }
      </style><style
       id="current-color-scheme-10-27"
       type="text/css">
      .ColorScheme-Text {
        color:#122036;
      }
      </style><style
       type="text/css"
       id="current-color-scheme-0-09">
      .ColorScheme-Text {
        color:#122036;
      }
      </style><style
       type="text/css"
       id="current-color-scheme-26-3">
      .ColorScheme-Text {
        color:#122036;
      }
      </style><style
       id="current-color-scheme-27-6"
       type="text/css">
      .ColorScheme-Text {
        color:#122036;
      }
      </style><style
       id="current-color-scheme-7-0"
       type="text/css">
      .ColorScheme-Text {
        color:#122036;
      }
      </style><style
       id="current-color-scheme-5-09-6"
       type="text/css">
      .ColorScheme-Text {
        color:#122036;
      }
      </style><style
       id="current-color-scheme-0-3-26"
       type="text/css">
      .ColorScheme-Text {
        color:#122036;
      }
      </style><style
       id="current-color-scheme-7-9-1"
       type="text/css">
      .ColorScheme-Text {
        color:#122036;
      }
      </style><style
       id="current-color-scheme-5-3-8"
       type="text/css">
      .ColorScheme-Text {
        color:#122036;
      }
      </style><style
       id="current-color-scheme-79-7"
       type="text/css">
      .ColorScheme-Text {
        color:#122036;
      }
      </style><style
       id="current-color-scheme-7-2-92"
       type="text/css">
      .ColorScheme-Text {
        color:#122036;
      }
      </style><style
       id="current-color-scheme-5-0-0"
       type="text/css">
      .ColorScheme-Text {
        color:#122036;
      }
      </style></defs><sodipodi:namedview
     id="base"
     pagecolor="#ffffff"
     bordercolor="#666666"
     borderopacity="1.0"
     inkscape:pageopacity="0.0"
     inkscape:pageshadow="2"
     inkscape:zoom="11.313709"
     inkscape:cx="-15.865708"
     inkscape:cy="9.413359"
     inkscape:document-units="px"
     inkscape:current-layer="g13348"
     showgrid="true"
     units="px"
     inkscape:window-width="2160"
     inkscape:window-height="1335"
     inkscape:window-x="0"
     inkscape:window-y="0"
     inkscape:window-maximized="1"
     objecttolerance="10"
     gridtolerance="10"
     guidetolerance="10"
     inkscape:showpageshadow="2"
     inkscape:pagecheckerboard="0"
     inkscape:deskcolor="#d1d1d1"><inkscape:grid
       type="xygrid"
       id="grid7897"
       empspacing="4" /></sodipodi:namedview><metadata
     id="metadata5"><rdf:RDF><cc:Work
         rdf:about=""><dc:format>image/svg+xml</dc:format><dc:type
           rdf:resource="http://purl.org/dc/dcmitype/StillImage" /><dc:title>Antu icon Theme</dc:title></cc:Work></rdf:RDF></metadata><g
     inkscape:label="Capa 1"
     inkscape:groupmode="layer"
     id="layer1"
     transform="translate(0,-282.64999)"><g
       id="g13348"
       transform="translate(24,2.47772)"><g
         id="g4006"
         transform="translate(-31,2e-5)"><g
           id="g5329"
           transform="translate(91,-6.47772)"><path
             inkscape:connector-curvature="0"
             style="opacity:1;fill:#a3b7cc;fill-opacity:1;stroke:none;stroke-width:2;stroke-linecap:round;stroke-linejoin:round;stroke-miterlimit:4;stroke-dasharray:none;stroke-opacity:1"
             d="m -79,287.64997 h 21.999999 c 1.108,0 2,0.89202 2,2.00001 v 26.00001 c 0,1.10797 -0.892,1.99998 -2,1.99998 H -79 c -1.108,0 -2,-0.89201 -2,-1.99998 v -26 c 0,-1.108 0.892,-2 2,-2.00002 z"
             id="rect827-8" /><path
             inkscape:connector-curvature="0"
             style="opacity:1;fill:#fafafa;fill-opacity:1;stroke:none;stroke-width:2;stroke-linecap:round;stroke-linejoin:round;stroke-miterlimit:4;stroke-dasharray:none;stroke-opacity:1"
             d="M -78.999999,288.65001 H -57 c 0.554,0 1,0.44599 1,1 v 26 c 0,0.55401 -0.446,1 -1,1 h -21.999999 c -0.554,0 -1,-0.44599 -1,-1 v -26 c 0,-0.55399 0.446,-1 1,-1 z"
             id="rect829-6" /><g
             id="g1507"
             transform="translate(-73,1)" /><g
             inkscape:label="Capa 1"
             id="layer1-9"
             transform="matrix(3.7795277,0,0,3.7795277,-119.99845,-792.86868)"
             style="fill:#d1ebff;fill-opacity:1"><g
               id="g3883"
               transform="translate(9.6238659,-4.0302467)"
               style="fill:#d1ebff;fill-opacity:1" /></g><path
             id="rect859-6-5"
             style="fill:#dfe6ec;fill-opacity:1;stroke:none;stroke-width:2;stroke-linecap:round;stroke-linejoin:round;stroke-miterlimit:4;stroke-dasharray:none;stroke-dashoffset:0;stroke-opacity:1;paint-order:normal"
             d="m -79,288.64999 c -0.553947,0 -1,0.4461 -1,1.00003 v 1.99997 1.00003 h 1 2 1 v -1.00003 -1.99997 -1.00003 h -1 z m 3,4.00003 V 296.65 h 4 v -3.99998 z m 4,0 h 4 v -4.00003 h -4 z m 4,0 V 296.65 h 4 v -3.99998 z m 4,0 h 4 v -4.00003 h -4 z m 4,0 V 296.65 h 4 v -3.99998 z m 0,3.99998 h -4 v 3.99999 h 4 z m 0,3.99999 v 4.00003 h 4 v -4.00003 z m 0,4.00003 h -4 V 308.65 h 4 z m 0,3.99998 v 0.99999 2.00001 0.99999 h 3 1 v -0.99999 -3 z m 0,3.99999 h -4 v 4.00003 h 4 z m -4,0 V 308.65 h -4 v 3.99999 z m -4,0 h -4 v 4.00003 h 4 z m -4,0 V 308.65 h -4 v 3.99999 z m -4,0 h -4 v 4.00003 h 4 z m 0,-3.99999 v -3.99998 h -4 V 308.65 Z m 0,-3.99998 h 4 v -4.00003 h -4 z m 0,-4.00003 V 296.65 h -4 v 3.99999 z m 4,0 h 4 V 296.65 h -4 z m 4,0 v 4.00003 h 4 v -4.00003 z m 0,4.00003 h -4 V 308.65 h 4 z" /></g></g><path
         style="color:#000000;fill:#347cce;stroke-linecap:round;stroke-linejoin:round;stroke-miterlimit:1.8;paint-order:stroke fill markers"
         d="m -9.5,285.17187 c -2.752696,0 -5,2.24731 -5,5 a 1.0001,1.0001 0 0 0 0.167969,0.16797 C -16.675752,290.75153 -18.5,292.71375 -18.5,295.17187 v 2 c 0,2.7527 2.247305,5 5,5 h 1 a 1.0001,1.0001 0 0 0 1,-1 v -2.5 c 0,-0.046 0.0021,-0.097 0.0078,-0.15429 v -0.002 c 0.0057,-0.0561 0.01502,-0.10903 0.02344,-0.15039 0.0108,-0.053 0.02148,-0.0965 0.03516,-0.14062 0.01455,-0.047 0.03216,-0.0945 0.05078,-0.13867 0.01769,-0.0419 0.03823,-0.0861 0.0625,-0.13086 0.02442,-0.0451 0.04949,-0.0864 0.07422,-0.12305 a 1.0001,1.0001 0 0 0 0.002,-0.002 c 0.02098,-0.0311 0.04862,-0.068 0.08594,-0.11328 0.03571,-0.0433 0.0674,-0.0791 0.0957,-0.10743 0.02813,-0.0281 0.06395,-0.0599 0.107422,-0.0957 0.04495,-0.0371 0.08199,-0.0648 0.113281,-0.0859 0.03694,-0.0249 0.07992,-0.0517 0.125,-0.0762 0.04467,-0.0242 0.08859,-0.0447 0.130859,-0.0625 0.0446,-0.0188 0.09174,-0.0362 0.138672,-0.0508 0.04354,-0.0135 0.0871,-0.0243 0.140625,-0.0352 0.04187,-0.009 0.09343,-0.0157 0.150391,-0.0215 a 1.0001,1.0001 0 0 0 0.0059,-0.002 c 0.05014,-0.005 0.100027,-0.008 0.150391,-0.008 h 4 c 0.125069,0 0.245663,-0.008 0.359375,-0.0195 0.116032,-0.0113 0.231632,-0.0275 0.345703,-0.0508 0.110286,-0.0225 0.222204,-0.0514 0.333984,-0.0859 a 1.0001,1.0001 0 0 0 0.002,0 c 0.109108,-0.0338 0.215884,-0.0723 0.322265,-0.11718 0.10862,-0.0457 0.210427,-0.0963 0.306641,-0.14844 0.09665,-0.0524 0.193047,-0.10912 0.289062,-0.17383 0.102422,-0.069 0.191912,-0.13917 0.269532,-0.20312 0.07968,-0.0657 0.163207,-0.13976 0.248046,-0.22461 0.08448,-0.0845 0.158543,-0.16793 0.22461,-0.24805 0.06442,-0.0781 0.132546,-0.16584 0.201172,-0.26758 a 1.0001,1.0001 0 0 0 0.002,-0.002 c 0.06494,-0.0963 0.121551,-0.1926 0.173828,-0.28906 0.05231,-0.0966 0.102931,-0.19867 0.148437,-0.30664 0.04453,-0.10562 0.08319,-0.21247 0.117188,-0.32227 0.03483,-0.11248 0.06352,-0.22584 0.08594,-0.33594 0.02469,-0.12121 0.03952,-0.2362 0.05078,-0.34765 C -2.508338,293.91842 -2.5,293.79825 -2.5,293.67187 v -3 -0.5 c 0,-2.75269 -2.247303,-5 -5,-5 z m 0,2 h 2 c 1.679283,0 3,1.32072 3,3 v 0.5 3 c 0,0.0467 -0.002,0.0987 -0.0078,0.15625 -0.0058,0.0571 -0.01493,0.10861 -0.02344,0.1504 -0.01078,0.0529 -0.02143,0.0983 -0.03516,0.14257 -0.01454,0.047 -0.03224,0.0927 -0.05078,0.13672 -0.01757,0.0417 -0.03801,0.0856 -0.0625,0.13086 -0.02452,0.0453 -0.05143,0.0883 -0.07617,0.125 h 0.002 c -0.02106,0.0312 -0.05057,0.07 -0.08789,0.11524 -0.03523,0.0426 -0.06751,0.0773 -0.0957,0.10546 -0.02813,0.0281 -0.06372,0.0596 -0.107422,0.0957 -0.04576,0.0377 -0.08274,0.0673 -0.113281,0.0879 -0.03694,0.0249 -0.07993,0.0498 -0.125,0.0742 -0.0455,0.0246 -0.08982,0.0452 -0.13086,0.0625 a 1.0001,1.0001 0 0 0 0,0.002 c -0.04327,0.0183 -0.09102,0.0341 -0.138671,0.0488 -0.0444,0.0136 -0.08855,0.0245 -0.140625,0.0351 -0.04572,0.009 -0.09543,0.0168 -0.144532,0.0215 a 1.0001,1.0001 0 0 0 -0.0098,0.002 c -0.05478,0.006 -0.104293,0.008 -0.152344,0.008 h -4 c -0.122759,0 -0.242964,0.007 -0.361328,0.0195 -0.109867,0.0112 -0.224571,0.0285 -0.34375,0.0527 -0.109514,0.0223 -0.222716,0.0489 -0.335938,0.084 -0.109828,0.0341 -0.217227,0.073 -0.322265,0.11719 -0.107379,0.0453 -0.209595,0.0958 -0.306641,0.14844 -0.09663,0.0524 -0.193043,0.11108 -0.289062,0.17578 -0.101673,0.0686 -0.191101,0.13646 -0.269532,0.20117 -0.07991,0.0659 -0.163216,0.13975 -0.248047,0.22461 -0.08466,0.0847 -0.15858,0.16796 -0.224609,0.24805 -0.06443,0.0781 -0.134429,0.16765 -0.203125,0.26953 h 0.002 c -0.06495,0.0963 -0.123403,0.19236 -0.175781,0.28906 -0.05253,0.0969 -0.103047,0.199 -0.148438,0.30664 -0.04446,0.10548 -0.08318,0.2144 -0.117187,0.32422 -0.03488,0.1126 -0.06354,0.224 -0.08594,0.33399 -0.02467,0.12116 -0.03952,0.2381 -0.05078,0.34961 -0.01116,0.11018 -0.0196,0.22868 -0.0196,0.35531 v 1.5 c -1.679279,0 -3,-1.32072 -3,-3 v -2 c 0,-1.67927 1.320721,-3 3,-3 h 1 0.125 3.875 a 1.0001,1.0001 0 0 0 1,-1 v -0.5 -0.5 a 1.0001,1.0001 0 0 0 -1,-1 h -3.591797 c 0.433974,-1.11559 1.306781,-2 2.591797,-2 z"
         id="path19134" /><g
         inkscape:label="Capa 1"
         id="layer1-6"
         transform="translate(72.875,-50.54022)"><g
           id="g2369"
           transform="translate(25,-8)" /></g><path
         style="color:#000000;fill:#6bb1ff;stroke-width:2;stroke-linecap:round;stroke-linejoin:round;stroke-miterlimit:1.8;paint-order:stroke fill markers"
         d="m -9.5,286.17227 c -2.215991,0 -4,1.78401 -4,4 h 5 v 0.5 0.5 h -3.875 -0.125 -1 c -2.215989,0 -4,1.78401 -4,4 v 2 c 0,2.21599 1.784011,4 4,4 h 1 v -2.5 c 0,-0.0866 0.0052,-0.17161 0.01367,-0.25586 0.0085,-0.0842 0.02051,-0.16848 0.03711,-0.25 0.0166,-0.0815 0.03627,-0.1599 0.06055,-0.23828 0.02428,-0.0784 0.05244,-0.15564 0.08398,-0.23047 0.03154,-0.0748 0.06707,-0.14789 0.105469,-0.21875 0.0384,-0.0709 0.08016,-0.14055 0.125,-0.20703 0.04484,-0.0665 0.09366,-0.12972 0.144531,-0.19141 0.05087,-0.0617 0.103672,-0.12125 0.160156,-0.17773 0.05648,-0.0565 0.116046,-0.10929 0.177735,-0.16016 0.06169,-0.0509 0.124926,-0.0997 0.191406,-0.14453 0.06648,-0.0448 0.136173,-0.0866 0.207031,-0.125 0.07086,-0.0384 0.143926,-0.0739 0.21875,-0.10547 0.07482,-0.0315 0.152091,-0.0597 0.230469,-0.084 0.07838,-0.0243 0.156763,-0.0439 0.238281,-0.0605 0.08152,-0.0166 0.165753,-0.0286 0.25,-0.0371 0.08425,-0.009 0.169298,-0.0137 0.25586,-0.0137 h 4 c 0.08656,0 0.171613,-0.005 0.255859,-0.0137 0.08425,-0.008 0.168482,-0.0205 0.25,-0.0371 0.08152,-0.0166 0.159904,-0.0363 0.238282,-0.0605 0.07838,-0.0243 0.155644,-0.0524 0.230468,-0.084 0.07483,-0.0315 0.147892,-0.0671 0.21875,-0.10547 0.07086,-0.0384 0.140552,-0.0802 0.207032,-0.125 0.06648,-0.0448 0.129718,-0.0937 0.191406,-0.14453 0.06169,-0.0509 0.12125,-0.10367 0.177734,-0.16016 0.05648,-0.0565 0.109289,-0.11604 0.160157,-0.17773 0.05087,-0.0617 0.09969,-0.12493 0.144531,-0.19141 0.04484,-0.0665 0.0866,-0.13617 0.125,-0.20703 0.0384,-0.0709 0.07393,-0.14392 0.105469,-0.21875 0.03154,-0.0748 0.05971,-0.15209 0.08398,-0.23047 0.02428,-0.0784 0.04395,-0.15676 0.06055,-0.23828 0.0166,-0.0815 0.0286,-0.16575 0.03711,-0.25 0.0085,-0.0842 0.01367,-0.1693 0.01367,-0.25586 v -3 -0.5 c 0,-2.21599 -1.784008,-4 -4,-4 z"
         id="path19136" /><path
         style="color:#000000;fill:#f7b656;stroke-linecap:round;stroke-linejoin:round;stroke-miterlimit:1.8;-inkscape-stroke:none;paint-order:stroke fill markers"
         d="m -3.5,290.17187 a 1.0001,1.0001 0 0 0 -1,1 v 2.5 c 0,0.0466 -0.002,0.0981 -0.0078,0.15625 -0.0057,0.0569 -0.01491,0.10852 -0.02344,0.1504 -0.0108,0.053 -0.02148,0.0984 -0.03516,0.14257 -0.01456,0.047 -0.03218,0.0926 -0.05078,0.13672 -0.01769,0.0419 -0.03823,0.0861 -0.0625,0.13086 -0.02442,0.0451 -0.04949,0.0883 -0.07422,0.125 a 1.0001,1.0001 0 0 0 -0.002,0 c -0.02098,0.0311 -0.04862,0.068 -0.08594,0.11328 -0.03571,0.0433 -0.0674,0.0791 -0.0957,0.10742 -0.02813,0.0281 -0.06394,0.0598 -0.107422,0.0957 -0.04495,0.0371 -0.08199,0.0668 -0.113281,0.0879 -0.03694,0.0249 -0.07992,0.0498 -0.125,0.0742 -0.04467,0.0242 -0.08859,0.0447 -0.13086,0.0625 -0.0446,0.0188 -0.09174,0.0362 -0.138671,0.0508 -0.04354,0.0135 -0.0871,0.0243 -0.140625,0.0351 -0.04187,0.009 -0.09343,0.0177 -0.150391,0.0234 a 1.0001,1.0001 0 0 0 -0.0059,0 c -0.05013,0.005 -0.100027,0.008 -0.150391,0.008 h -4 c -0.12168,0 -0.238658,0.008 -0.349609,0.0195 -0.119396,0.0113 -0.238151,0.0288 -0.355469,0.0527 -0.110286,0.0225 -0.222204,0.0495 -0.333985,0.084 a 1.0001,1.0001 0 0 0 -0.002,0 c -0.109108,0.0338 -0.215884,0.0742 -0.322265,0.11915 v -0.002 c -0.10862,0.0457 -0.210427,0.0963 -0.306641,0.14844 -0.09665,0.0524 -0.193047,0.11108 -0.289062,0.17578 -0.102422,0.069 -0.191912,0.13722 -0.269532,0.20117 -0.07968,0.0657 -0.163207,0.13976 -0.248047,0.22461 -0.08448,0.0845 -0.158542,0.16793 -0.224609,0.24805 -0.06442,0.0781 -0.132546,0.16779 -0.201172,0.26953 a 1.0001,1.0001 0 0 0 -0.002,0 c -0.06494,0.0963 -0.121551,0.1926 -0.173828,0.28906 -0.05231,0.0966 -0.102931,0.19867 -0.148438,0.30664 -0.04453,0.10562 -0.08319,0.21443 -0.117187,0.32422 -0.03483,0.11248 -0.06352,0.22389 -0.08594,0.33399 -0.02469,0.12121 -0.03952,0.23816 -0.05078,0.34961 -0.01102,0.11086 -0.01935,0.22908 -0.01935,0.35545 v 3 0.5 c 0,2.7527 2.247303,5 5,5 h 2 c 2.752696,0 5,-2.2473 5,-5 a 1.0001,1.0001 0 0 0 -0.167969,-0.16796 C 0.675752,301.59222 2.5,299.63 2.5,297.17187 v -2 c 0,-2.75269 -2.247305,-5 -5,-5 z m 1,2 c 1.679279,0 3,1.32073 3,3 v 2 c 0,1.67928 -1.320721,3 -3,3 h -1 -0.125 -3.875 a 1.0001,1.0001 0 0 0 -1,1 v 0.5 0.5 a 1.0001,1.0001 0 0 0 1,1 h 3.591797 c -0.43377,1.11603 -1.306472,2 -2.591797,2 h -2 c -1.679283,0 -3,-1.32071 -3,-3 v -0.5 -3 c 0,-0.0467 0.002,-0.0968 0.0078,-0.15429 0.0058,-0.0571 0.01493,-0.11056 0.02344,-0.15235 0.01078,-0.0529 0.02143,-0.0963 0.03516,-0.14062 0.01454,-0.047 0.03224,-0.0947 0.05078,-0.13867 0.01757,-0.0417 0.03801,-0.0856 0.0625,-0.13086 0.02452,-0.0453 0.05143,-0.0883 0.07617,-0.125 h -0.002 c 0.02106,-0.0312 0.05057,-0.068 0.08789,-0.11328 0.03567,-0.0433 0.06722,-0.0789 0.0957,-0.10743 0.02813,-0.0281 0.06372,-0.0596 0.107422,-0.0957 0.04576,-0.0377 0.08274,-0.0654 0.113281,-0.0859 0.03694,-0.0249 0.07993,-0.0517 0.125,-0.0762 0.0455,-0.0246 0.08982,-0.0452 0.130859,-0.0625 0.04273,-0.018 0.08969,-0.0361 0.136719,-0.0508 0.04498,-0.0139 0.08982,-0.0244 0.142578,-0.0352 0.04572,-0.009 0.09543,-0.0168 0.144532,-0.0215 a 1.0001,1.0001 0 0 0 0.0098,0 c 0.05478,-0.006 0.104293,-0.01 0.152344,-0.01 h 4 c 0.122759,0 0.242962,-0.007 0.361328,-0.0195 0.109783,-0.0112 0.22467,-0.0265 0.34375,-0.0508 0.109514,-0.0223 0.222716,-0.0508 0.335938,-0.0859 0.109828,-0.0341 0.217227,-0.073 0.322265,-0.11718 0.107379,-0.0453 0.209595,-0.0958 0.306641,-0.14844 0.09663,-0.0524 0.193043,-0.10912 0.289062,-0.17383 0.101673,-0.0686 0.191101,-0.13841 0.269532,-0.20312 0.0799,-0.0659 0.163212,-0.13975 0.248046,-0.22461 0.08466,-0.0847 0.158581,-0.16796 0.22461,-0.24805 0.06391,-0.0775 0.133028,-0.16674 0.201172,-0.26758 l 0.002,-0.002 c 0.06433,-0.0956 0.121863,-0.19312 0.173828,-0.28906 0.05253,-0.0969 0.103047,-0.199 0.148437,-0.30664 0.04448,-0.10553 0.08318,-0.21247 0.117188,-0.32227 0.03488,-0.1126 0.06354,-0.22595 0.08594,-0.33594 0.02467,-0.12116 0.03952,-0.23614 0.05078,-0.34765 a 1.0001,1.0001 0 0 0 0,-0.002 C -2.508439,293.91701 -2.5,293.79851 -2.5,293.67187 Z"
         id="path19140" /><rect
         style="fill:#347cce;fill-opacity:1;stroke-width:4;stroke-linecap:round;stroke-linejoin:round;stroke-miterlimit:1.8;paint-order:stroke fill markers;stop-color:#000000"
         id="rect14957"
         width="2"
         height="2"
         x="-10.5"
         y="287.17227"
         ry="1" /><path
         style="color:#000000;fill:#ffeba0;stroke-width:2;stroke-linecap:round;stroke-linejoin:round;stroke-miterlimit:1.8;-inkscape-stroke:none;paint-order:stroke fill markers"
         d="m -6.5,306.17227 c 2.215991,0 4,-1.78401 4,-4 h -5 v -0.5 -0.5 h 3.875 0.125 1 c 2.215989,0 4,-1.78401 4,-4 v -2 c 0,-2.21599 -1.784011,-4 -4,-4 h -1 v 2.5 c 0,0.0866 -0.0052,0.17161 -0.01367,0.25586 -0.0085,0.0842 -0.02051,0.16848 -0.03711,0.25 -0.0166,0.0815 -0.03627,0.1599 -0.06055,0.23828 -0.02428,0.0784 -0.05244,0.15565 -0.08398,0.23047 -0.03154,0.0748 -0.06707,0.14789 -0.105469,0.21875 -0.0384,0.0709 -0.08016,0.14055 -0.125,0.20703 -0.04484,0.0665 -0.09366,0.12972 -0.144531,0.19141 -0.05087,0.0617 -0.103672,0.12125 -0.160156,0.17773 -0.05648,0.0565 -0.116047,0.10929 -0.177735,0.16016 -0.06169,0.0509 -0.124926,0.0997 -0.191406,0.14453 -0.06648,0.0448 -0.136173,0.0866 -0.207031,0.125 -0.07086,0.0384 -0.143926,0.0739 -0.21875,0.10547 -0.07482,0.0315 -0.152091,0.0597 -0.230469,0.084 -0.07838,0.0243 -0.156763,0.0439 -0.238281,0.0605 -0.08152,0.0166 -0.165753,0.0286 -0.25,0.0371 -0.08425,0.009 -0.1693,0.0137 -0.255862,0.0137 h -4 c -0.08656,0 -0.171613,0.005 -0.255859,0.0137 -0.08425,0.008 -0.168482,0.0205 -0.25,0.0371 -0.08152,0.0166 -0.159904,0.0363 -0.238282,0.0605 -0.07838,0.0243 -0.155644,0.0524 -0.230468,0.084 -0.07483,0.0315 -0.147892,0.0671 -0.21875,0.10547 -0.07086,0.0384 -0.140552,0.0802 -0.207032,0.125 -0.06648,0.0448 -0.129718,0.0937 -0.191406,0.14453 -0.06169,0.0509 -0.12125,0.10367 -0.177734,0.16016 -0.05648,0.0565 -0.109289,0.11604 -0.160157,0.17773 -0.05087,0.0617 -0.09969,0.12493 -0.144531,0.19141 -0.04484,0.0665 -0.0866,0.13617 -0.125,0.20703 -0.0384,0.0709 -0.07393,0.14392 -0.105469,0.21875 -0.03154,0.0748 -0.05971,0.15209 -0.08398,0.23047 -0.02428,0.0784 -0.04395,0.15676 -0.06055,0.23828 -0.0166,0.0815 -0.0286,0.16575 -0.03711,0.25 -0.0085,0.0842 -0.01367,0.1693 -0.01367,0.25586 v 3 0.5 c 0,2.21599 1.784008,4 4,4 z"
         id="path19142" /><rect
         style="fill:#f7b656;fill-opacity:1;stroke-width:4;stroke-linecap:round;stroke-linejoin:round;stroke-miterlimit:1.8;paint-order:stroke fill markers;stop-color:#000000"
         id="rect14959"
         width="2"
         height="2"
         x="-7.5"
         y="303.17227"
         ry="1" /></g></g></svg>
